<svg width="208" height="182" viewBox="0 0 208 182" fill="none" xmlns="http://www.w3.org/2000/svg">
<path opacity="0.5" d="M178.122 173.056C181.571 148.135 177.584 122.747 166.665 100.101C155.747 77.4557 138.387 58.5705 116.781 45.8336C95.1749 33.0968 70.2934 27.0804 45.2829 28.5452C20.2723 30.0101 -3.74408 38.8905 -23.7292 54.0633C-43.7144 69.2362 -58.7708 90.02 -66.9943 113.787C-75.2179 137.553 -76.2393 163.235 -69.9294 187.585C-63.6195 211.935 -50.2617 233.858 -31.5452 250.584C-12.8286 267.309 10.406 278.085 35.2205 281.548L49.1611 283.494L45.2861 311.495L31.3456 309.549C-53.343 297.728 -112.458 219.193 -100.688 134.141C-88.9179 49.0881 -10.7189 -10.281 73.9697 1.5397C158.658 13.3604 217.773 91.8955 206.003 176.948L204.066 190.948L176.185 187.057L178.122 173.056ZM122.36 165.273C124.604 149.061 121.174 132.568 112.657 118.613C104.14 104.657 91.0633 94.1027 75.66 88.7523C60.2567 83.4019 43.4818 83.5871 28.1993 89.276C12.9168 94.965 0.0743848 105.805 -8.13535 119.945C-16.3451 134.086 -19.413 150.65 -16.8154 166.809C-14.2178 182.969 -6.11562 197.721 6.10772 208.549C18.3311 219.376 33.9176 225.607 50.2063 226.177C66.495 226.747 82.4757 221.622 95.42 211.675L106.598 203.089L123.711 225.542L112.535 234.115C94.4143 248.042 72.0413 255.221 49.2363 254.425C26.4314 253.629 4.60862 244.908 -12.5058 229.75C-29.6202 214.593 -40.9649 193.939 -44.603 171.315C-48.241 148.691 -43.9468 125.501 -32.4534 105.703C-20.9601 85.9056 -2.98036 70.7286 18.4158 62.7636C39.8119 54.7985 63.2976 54.5393 84.8628 62.0303C106.428 69.5213 124.735 84.2979 136.659 103.837C148.583 123.376 153.383 146.466 150.241 169.165L148.304 183.165L120.423 179.274L122.36 165.273ZM66.5982 157.49C66.9814 154.721 66.5384 151.9 65.3252 149.384C64.112 146.868 62.1831 144.77 59.7825 143.354C57.3818 141.939 54.6172 141.271 51.8383 141.433C49.0593 141.596 46.3908 142.583 44.1702 144.269C41.9497 145.955 40.2767 148.264 39.363 150.905C38.4493 153.545 38.3358 156.399 39.0369 159.104C39.738 161.81 41.2222 164.246 43.3018 166.104C45.3814 167.963 47.9631 169.16 50.7202 169.545L64.6607 171.491L60.7858 199.491L46.8453 197.546C38.5738 196.391 30.8289 192.799 24.5901 187.224C18.3512 181.649 13.8986 174.341 11.7953 166.225C9.69202 158.108 10.0325 149.547 12.7737 141.625C15.5149 133.703 20.5336 126.775 27.1954 121.717C33.8571 116.66 41.8626 113.7 50.1994 113.211C58.5363 112.723 66.8301 114.729 74.032 118.974C81.234 123.22 87.0206 129.515 90.6602 137.063C94.2998 144.612 95.6288 153.075 94.4792 161.382L92.5418 175.382L64.6607 171.491L66.5982 157.49Z" fill="url(#paint0_angular_201_17)" fill-opacity="0.5"/>
<defs>
<radialGradient id="paint0_angular_201_17" cx="0" cy="0" r="1" gradientUnits="userSpaceOnUse" gradientTransform="translate(52.6577 155.544) rotate(-172.054) scale(154.832 153.29)">
<stop offset="0.223606" stop-color="#B5A49E"/>
<stop offset="0.584848" stop-color="#B5A49E" stop-opacity="0.499351"/>
<stop offset="1" stop-color="#B5A49E" stop-opacity="0"/>
</radialGradient>
</defs>
</svg>
