<svg width="408" height="389" viewBox="0 0 408 389" fill="none" xmlns="http://www.w3.org/2000/svg">
<path opacity="0.5" d="M154.33 -287.955C111.123 -227.672 86.7625 -155.93 84.3288 -81.8024C81.895 -7.6743 101.497 65.5107 140.657 128.498C179.817 191.485 236.775 241.446 304.329 272.062C371.883 302.678 446.999 312.574 520.178 300.5C593.356 288.425 661.311 254.922 715.448 204.226C769.586 153.53 807.474 87.9197 824.323 15.6908C841.171 -56.5381 836.223 -132.141 810.104 -201.558C783.985 -270.975 737.868 -331.087 677.585 -374.294L643.718 -398.567L692.265 -466.3L726.131 -442.027C931.869 -294.568 979.115 -8.23104 831.656 197.507C684.197 403.245 397.861 450.491 192.123 303.032C-13.6152 155.573 -60.8618 -130.764 86.5973 -336.501L110.87 -370.368L178.603 -321.822L154.33 -287.955ZM289.795 -190.863C261.687 -151.645 248.063 -103.886 251.25 -55.7403C254.436 -7.59477 274.236 37.9519 307.268 73.1234C340.299 108.295 384.516 130.91 432.367 137.108C480.218 143.306 528.737 132.703 569.64 107.108C610.542 81.513 641.293 42.5139 656.641 -3.23086C671.989 -48.9756 670.983 -98.6295 653.794 -143.715C636.605 -188.8 604.3 -226.521 562.394 -250.438C520.488 -274.355 471.579 -282.984 424.018 -274.853L382.952 -267.838L368.888 -349.994L409.93 -356.975C476.516 -368.368 544.992 -356.294 603.666 -322.816C662.34 -289.337 707.573 -236.529 731.643 -173.41C755.713 -110.29 757.126 -40.7722 735.642 23.2738C714.158 87.3198 671.108 141.922 613.843 177.758C556.578 213.594 488.65 228.441 421.656 219.764C354.662 211.087 292.758 179.425 246.512 130.183C200.266 80.9402 172.548 17.172 168.088 -50.234C163.629 -117.64 182.707 -184.504 222.063 -239.409L246.336 -273.275L314.068 -224.729L289.795 -190.863ZM425.261 -93.7704C420.46 -87.0723 417.753 -79.101 417.483 -70.8645C417.212 -62.6281 419.39 -54.4964 423.741 -47.4978C428.092 -40.4992 434.421 -34.948 441.927 -31.5463C449.433 -28.1445 457.779 -27.0449 465.91 -28.3865C474.041 -29.7282 481.592 -33.4508 487.607 -39.0836C493.622 -44.7165 497.832 -52.0065 499.704 -60.032C501.576 -68.0574 501.026 -76.4577 498.124 -84.1707C495.222 -91.8837 490.098 -98.5628 483.4 -103.364L449.534 -127.637L498.08 -195.369L531.946 -171.096C552.041 -156.694 567.413 -136.656 576.119 -113.517C584.826 -90.3786 586.475 -65.1776 580.859 -41.1013C575.243 -17.025 562.613 4.84527 544.567 21.7438C526.521 38.6423 503.87 49.8102 479.477 53.8351C455.084 57.86 430.046 54.5612 407.528 44.3558C385.01 34.1505 366.024 17.4969 352.97 -3.49883C339.917 -24.4946 333.383 -48.8896 334.194 -73.599C335.005 -98.3083 343.126 -122.222 357.528 -142.317L381.801 -176.183L449.534 -127.637L425.261 -93.7704Z" fill="url(#paint0_angular_201_19)" fill-opacity="0.5"/>
<defs>
<radialGradient id="paint0_angular_201_19" cx="0" cy="0" r="1" gradientUnits="userSpaceOnUse" gradientTransform="translate(362.2 110.637) rotate(112.242) scale(345.033)">
<stop offset="0.318813" stop-color="#F5F1EC"/>
<stop offset="0.504368" stop-color="#B5A49D"/>
<stop offset="0.993344" stop-color="#121111" stop-opacity="0.395079"/>
</radialGradient>
</defs>
</svg>
