<svg width="21" height="22" viewBox="0 0 21 22" fill="none" xmlns="http://www.w3.org/2000/svg">
<path fill-rule="evenodd" clip-rule="evenodd" d="M3.99014 1.10003L16.3239 1.09546C16.7069 1.09538 17.076 1.2396 17.3575 1.4994C17.6391 1.75919 17.8124 2.1155 17.8431 2.49736L19.2054 19.2577C19.2216 19.4573 19.1984 19.658 19.1371 19.8486C19.0757 20.0391 18.9774 20.2157 18.8478 20.3683C18.7182 20.5208 18.5598 20.6463 18.3816 20.7376C18.2035 20.8289 18.0091 20.8843 17.8096 20.9004L17.6877 20.905H2.70099C2.29686 20.905 1.90927 20.7444 1.6235 20.4587C1.33773 20.1729 1.17719 19.7853 1.17719 19.3812L1.18176 19.2638L2.4709 2.50651C2.50045 2.12383 2.67333 1.76639 2.95499 1.50565C3.23664 1.2449 3.60632 1.10004 3.99014 1.10003Z" stroke="black" stroke-width="2" stroke-linecap="round" stroke-linejoin="round"/>
<path d="M14.1772 10.0955V12.0305C14.1772 15.3455 11.3347 16.0955 9.67719 16.0955C8.01969 16.0955 5.17719 14.9105 5.17719 11.5955V10.0955" stroke="black" stroke-width="2" stroke-linecap="round" stroke-linejoin="round"/>
</svg>
