<svg width="35" height="36" viewBox="0 0 35 36" fill="none" xmlns="http://www.w3.org/2000/svg">
<path d="M17.5 0.9375C8.092 0.9375 0.4375 8.592 0.4375 18C0.4375 27.408 8.092 35.0625 17.5 35.0625C26.908 35.0625 34.5625 27.408 34.5625 18C34.5625 8.592 26.908 0.9375 17.5 0.9375ZM17.5 3.5625C25.4603 3.5625 31.9375 10.0397 31.9375 18C31.9375 25.9603 25.4603 32.4375 17.5 32.4375C9.53969 32.4375 3.0625 25.9603 3.0625 18C3.0625 10.0397 9.53969 3.5625 17.5 3.5625ZM10.9375 12.75C8.18912 12.75 6.19937 14.3342 6.19937 14.3342L7.80062 16.4158C7.80062 16.4158 9.22075 15.375 10.9388 15.375C12.6569 15.375 14.0757 16.4158 14.0757 16.4158L15.6769 14.3342C15.673 14.3342 13.6846 12.75 10.9375 12.75ZM24.0625 12.75C21.3141 12.75 19.3244 14.3342 19.3244 14.3342L20.9256 16.4158C20.9256 16.4158 22.3457 15.375 24.0638 15.375C25.7819 15.375 27.2007 16.4158 27.2007 16.4158L28.8019 14.3342C28.798 14.3342 26.8096 12.75 24.0625 12.75ZM10.6881 21.9375L8.43062 23.25C9.34213 24.8171 10.6387 26.1254 12.1975 27.051C12.5873 27.282 12.9903 27.4881 13.4089 27.6679C14.2607 28.0309 15.1572 28.2781 16.0746 28.4029C17.0204 28.5327 17.9796 28.5327 18.9254 28.4029C21.2024 28.0878 23.3118 27.0299 24.9261 25.3933C25.5623 24.7513 26.1145 24.0311 26.5694 23.25L24.3119 21.9375C23.4404 23.4487 22.0915 24.6275 20.4772 25.2887C18.8629 25.9499 17.0746 26.0559 15.3934 25.5902C14.7326 25.4072 14.0988 25.1375 13.5087 24.7883C12.3395 24.0962 11.3671 23.1143 10.6881 21.9375Z" fill="#251D18"/>
</svg>
