<svg width="38" height="36" viewBox="0 0 38 36" fill="none" xmlns="http://www.w3.org/2000/svg">
<path d="M16.23 0.502029C15.918 0.81403 15.814 1.20403 15.918 1.93203L16.048 2.92003H15.034C13.578 2.92003 12.46 3.98603 12.278 5.54603C12.174 6.50803 12.018 6.76803 11.42 7.02803C10.588 7.41803 9.75599 8.92603 9.93799 9.81003C10.016 10.278 9.91199 10.46 9.41799 10.59C8.58599 10.798 7.77999 12.176 7.77999 13.45C7.77999 14.282 7.64999 14.542 7.20799 14.75C6.86999 14.906 6.37599 15.426 6.11599 15.92C5.43999 17.194 5.69999 18.494 6.92199 19.846L7.85799 20.886L4.16599 24.604C1.14999 27.62 0.473991 28.452 0.551991 28.946C0.733991 30.324 1.51399 29.856 5.43999 25.93C8.81999 22.55 9.36599 22.108 9.93799 22.264C11.524 22.654 13.37 21.588 13.656 20.08C13.786 19.482 13.968 19.3 14.462 19.3C15.242 19.3 16.334 18.234 16.516 17.246C16.646 16.674 16.854 16.466 17.426 16.336C18.362 16.154 19.402 15.088 19.61 14.074C19.74 13.476 19.922 13.32 20.442 13.32C20.832 13.32 21.378 13.008 21.846 12.514C22.444 11.864 22.6 11.474 22.6 10.486C22.6 9.81003 22.47 9.13403 22.34 9.00403C22.158 8.82203 23.016 7.80803 24.94 5.93603C27.696 3.20603 27.8 3.12803 28.372 3.49203C29.49 4.24603 29.282 4.87003 27.15 7.08003C25.044 9.21203 24.758 9.99203 25.98 10.148C26.474 10.2 26.994 9.86203 28.19 8.64003C29.828 7.00203 30.686 6.69003 31.18 7.57403C31.622 8.40603 31.518 8.61403 29.698 10.486C28.242 11.994 28.008 12.384 28.216 12.748C28.736 13.554 29.334 13.372 30.608 12.046C31.882 10.72 32.61 10.434 33.208 11.032C33.806 11.63 33.52 12.54 32.324 13.84C31.102 15.14 30.92 15.972 31.778 16.128C32.038 16.18 32.636 15.868 33.156 15.426C33.65 14.984 34.144 14.62 34.248 14.62C34.742 14.62 35.6 15.478 35.6 15.946C35.6 16.31 33.988 18.078 31.128 20.912C26.214 25.748 24.94 26.606 22.054 27.074L20.416 27.36L17.088 30.662C13.5 34.224 13.162 34.64 13.396 35.264C13.786 36.278 14.384 35.94 17.062 33.288L19.714 30.636L20.598 31.052C21.092 31.286 22.054 31.546 22.756 31.65C23.9 31.806 24.238 32.04 26.006 33.782C27.54 35.29 28.138 35.706 28.606 35.628C29.854 35.472 29.516 34.666 27.124 32.274C25.304 30.454 24.654 29.96 24.082 29.96C22.99 29.96 21.014 29.414 21.196 29.154C21.274 29.024 21.612 28.92 21.95 28.92C23.016 28.92 25.85 27.906 27.15 27.048C27.878 26.58 30.4 24.214 32.792 21.796C36.042 18.494 37.186 17.168 37.316 16.544C37.524 15.478 36.848 13.918 36.016 13.528C35.47 13.294 35.34 13.06 35.34 12.228C35.34 10.902 34.742 9.81003 33.806 9.39403C33.39 9.21203 33.104 8.92603 33.182 8.71803C33.416 8.12003 32.714 6.56003 31.856 5.85803C31.232 5.33803 30.946 4.84403 30.842 4.09003C30.738 3.38803 30.426 2.81603 29.854 2.32203C29.178 1.69803 28.866 1.59403 27.774 1.64603C26.89 1.69803 26.37 1.59403 26.032 1.28203C25.044 0.398029 23.432 0.0600281 19.974 0.0600281C17.218 0.0600281 16.594 0.138027 16.23 0.502029ZM24.524 2.50403L25.252 2.97203L23.094 5.15603L20.936 7.34003L20.052 6.48203L19.194 5.65003L20.624 5.57203C22.08 5.49403 22.73 5.10403 22.47 4.40203C22.34 4.11603 21.794 3.98603 20.468 3.90803C18.934 3.83003 18.57 3.70003 18.154 3.20603C17.14 1.95803 17.374 1.82803 20.728 1.93203C23.172 1.98403 23.952 2.11403 24.524 2.50403ZM18.232 7.28803C19.766 8.82203 21.04 10.226 21.04 10.408C21.04 10.798 20.104 11.76 19.714 11.76C19.168 11.76 14.02 6.48203 14.02 5.93603C14.02 5.39003 14.722 4.48003 15.164 4.48003C15.294 4.48003 16.698 5.75403 18.232 7.28803ZM15.71 10.72C17.894 12.904 17.998 13.086 17.764 13.762C17.27 15.166 16.516 14.88 13.994 12.384C12.72 11.11 11.68 9.88803 11.68 9.62803C11.68 9.39403 11.862 9.00403 12.096 8.79603C12.304 8.56203 12.694 8.38003 12.928 8.38003C13.188 8.38003 14.436 9.42003 15.71 10.72ZM13.058 14.074C14.15 15.192 15.06 16.258 15.06 16.414C15.06 16.804 14.098 17.74 13.708 17.74C13.318 17.74 9.33999 13.762 9.33999 13.372C9.33999 12.956 10.302 12.02 10.718 12.02C10.926 12.02 11.966 12.93 13.058 14.074ZM10.562 17.532C12.044 18.988 12.304 19.872 11.446 20.34C10.64 20.756 10.432 20.678 8.92399 19.274C7.51999 17.922 7.20799 17.116 7.83199 16.492C8.42999 15.894 9.20999 16.18 10.562 17.532Z" fill="#251D18"/>
</svg>
