<svg width="180" height="58" viewBox="0 0 180 58" fill="none" xmlns="http://www.w3.org/2000/svg">
<path d="M14.9974 0.464993C9.56834 1.90979 4.49919 6.09049 2.15958 11.0397C0.479859 14.5134 -6.10352e-05 16.6652 -6.10352e-05 20.4155C-6.10352e-05 24.1351 0.539849 26.5636 1.97961 29.6069C5.33905 36.6465 12.0579 40.9501 19.7966 40.9809C23.606 41.0116 25.3157 40.612 29.2451 38.7676C31.7346 37.5994 32.5445 37.3535 34.0443 37.3228C36.2939 37.3228 37.4937 37.9068 38.1836 39.3824L38.7535 40.5505H43.1027H47.452L47.2421 39.3824C46.8821 37.2305 45.5623 34.7713 44.0326 33.2958C42.2029 31.5436 39.9533 30.4677 36.8038 29.9143C32.7845 29.1766 29.665 29.7914 25.9456 32.0969C18.9268 36.4313 10.1083 32.1276 7.91862 23.2744C6.8088 18.8478 8.45853 13.8371 12.1179 10.3634C13.5577 9.01083 17.0371 7.38159 18.8968 7.16641C21.0864 6.92048 23.846 7.62751 26.1256 9.04157C31.2247 12.2386 33.6543 18.8478 31.7946 24.4118C31.4647 25.3955 31.1947 26.2255 31.1947 26.287C31.1947 26.3484 32.2745 26.3792 33.6243 26.3792C34.9441 26.3792 36.7438 26.4714 37.6137 26.5636L39.2034 26.7788L39.5633 25.334C40.6731 20.8152 40.1332 15.8352 38.0936 11.4701C35.454 5.87531 30.8348 2.00201 24.8958 0.434254C22.6762 -0.149815 17.2171 -0.149815 14.9974 0.464993Z" fill="#BBBBBB"/>
<path d="M90.9148 10.7324C83.9859 12.6076 79.7866 18.1716 79.7866 25.4878C79.7866 30.0681 81.3764 33.9107 84.4659 36.8003C86.6855 38.8906 88.2152 39.7206 91.3347 40.5506C96.4039 41.8725 101.203 40.8273 105.492 37.4151C108.912 34.7407 110.591 30.8059 110.861 24.9037C111.131 19.0016 112.331 17.526 116.77 17.4953H118.78V14.2368V10.9783L114.821 11.132C112.121 11.2243 110.382 11.4394 109.422 11.7776C107.472 12.5153 105.432 14.4827 104.293 16.696C103.363 18.5405 103.333 18.6634 103.273 23.2745C103.183 27.6396 103.123 28.1315 102.373 29.853C100.153 34.9251 94.2442 36.3392 90.1349 32.7733C86.9554 30.0374 86.3855 23.3667 89.0251 19.4934C90.0149 18.0486 92.5945 16.5731 94.6042 16.3579C96.2239 16.1427 98.6835 16.9112 100.123 17.9871L101.083 18.7557L101.383 17.9564C101.563 17.4953 101.683 17.0035 101.683 16.819C101.683 16.6346 102.283 15.6201 103.003 14.575L104.323 12.6383L102.793 11.8698C99.1934 10.1176 94.7841 9.71797 90.9148 10.7324Z" fill="#BBBBBB"/>
<path d="M132.638 10.6099C125.769 12.1469 121.48 18.0184 121.48 25.8264C121.48 33.0504 125.319 38.4608 131.648 40.213C134.767 41.0737 139.267 41.1044 141.936 40.2437C143.676 39.6904 147.245 37.6308 147.665 36.9545C147.755 36.8315 146.915 35.6326 145.836 34.3108C143.976 32.036 143.856 31.9745 143.256 32.4049C142.896 32.6816 141.816 33.2964 140.826 33.7882C138.877 34.7719 136.477 35.0178 134.378 34.403C132.548 33.8804 130.598 32.4049 129.698 30.8679C129.008 29.6075 128.858 28.9927 128.738 26.349C128.558 22.2298 128.978 20.4161 130.538 18.5717C131.978 16.9117 132.998 16.2969 135.037 15.9895C139.087 15.3132 142.776 17.9261 142.776 21.4306V22.4142H136.777H130.778V25.1809V27.9475H140.526H150.275V25.6113C150.275 21.0002 148.775 16.6658 146.286 14.0221C143.166 10.7636 137.887 9.44178 132.638 10.6099Z" fill="#BBBBBB"/>
<path d="M48.8919 20.2617C48.8919 29.0535 48.9519 29.9449 49.4918 31.6664C50.9915 36.2467 54.081 39.1978 58.7003 40.5504C61.1598 41.2881 62.7796 41.3189 65.1792 40.6733C69.8284 39.4437 73.0079 36.5234 74.5976 32.0353C75.2575 30.1294 75.2875 29.7605 75.2875 20.4154V10.7322H71.7181H68.1187L68.0287 19.8928L67.9387 29.0842L67.0389 30.5597C65.3291 33.3571 62.1797 34.2486 59.4201 32.7116C57.8004 31.7894 56.8406 30.4675 56.4206 28.5616C56.2707 27.7931 56.1507 23.7968 56.1507 19.6469C56.1507 15.4969 56.1207 11.8081 56.1207 11.4084C56.0907 10.7322 56.0007 10.7322 52.4913 10.7322H48.8919V20.2617Z" fill="#BBBBBB"/>
<path d="M153.574 16.8196C153.574 21.4307 153.694 23.3059 154.024 24.5048C154.924 27.6095 156.874 30.3454 159.393 32.0669C161.553 33.5424 163.083 34.065 166.112 34.4339C168.872 34.7413 169.832 35.1409 171.001 36.4628C172.231 37.8154 172.531 38.6146 172.681 41.1661C172.921 44.5475 172.411 46.4842 170.851 48.0827C167.102 51.8945 161.553 49.5275 160.893 43.8405L160.683 42.0883H157.174C153.064 42.0883 153.124 42.0268 153.544 45.4697C154.444 52.6322 159.693 57.4278 166.652 57.4585C172.621 57.4585 177.18 54.2922 179.22 48.7282C179.88 46.8838 179.97 46.2382 179.97 42.3035C179.97 37.1391 179.64 35.6328 177.84 32.8969C175.561 29.3617 171.991 27.3636 167.102 26.8718C164.133 26.5644 162.693 25.6421 161.493 23.3366C161.013 22.4144 160.923 21.4614 160.863 17.0348C160.833 14.1452 160.803 11.563 160.803 11.2556C160.773 10.7945 160.383 10.733 157.174 10.733H153.574V16.8196Z" fill="#BBBBBB"/>
<path d="M172.771 15.8663C172.771 21.3996 172.531 22.9366 171.391 24.4429L170.701 25.4266L172.261 25.9492C173.971 26.5025 175.531 27.394 176.61 28.3776C177.33 29.0232 177.33 29.0232 177.78 28.4084C178.02 28.0702 178.59 27.0251 179.04 26.1029C179.79 24.4429 179.82 24.2277 179.91 17.557L180 10.7326H176.401H172.771V15.8663Z" fill="#BBBBBB"/>
<path d="M79.7866 43.2252C79.8166 47.3444 82.7561 52.601 86.3855 54.9988C90.9748 58.0114 98.0236 58.3188 103.033 55.7058C107.142 53.5233 110.322 48.6048 110.741 43.6863L110.891 42.0571L107.112 42.1493L103.333 42.2415L103.153 43.6248C102.913 45.3463 102.193 47.1292 101.233 48.4511C100.273 49.7114 97.0638 51.3099 95.414 51.3099C91.4847 51.3099 87.8553 47.8363 87.3754 43.5941L87.1954 42.0878H83.506H79.7866V43.2252Z" fill="#BBBBBB"/>
</svg>
