<svg width="180" height="45" viewBox="0 0 180 45" fill="none" xmlns="http://www.w3.org/2000/svg">
<path d="M-6.10352e-05 0.62735C-6.10352e-05 0.935936 0.301043 1.24452 0.602146 1.24452C0.963471 1.24452 1.20435 8.52717 1.20435 21.9198C1.20435 35.3125 0.963471 42.5951 0.602146 42.5951C0.301043 42.5951 -6.10352e-05 43.0272 -6.10352e-05 43.5209C-6.10352e-05 44.2615 1.02369 44.4467 5.4198 44.4467C9.69548 44.4467 10.8397 44.2615 10.8397 43.5826C10.8397 43.0889 10.5988 42.5951 10.2977 42.4717C9.99658 42.3483 9.63525 39.6327 9.51481 36.4234L9.33415 30.5603L13.7303 36.2382C16.0789 39.3241 18.0662 42.0397 18.0662 42.2248C18.0662 42.41 17.4037 42.5951 16.5606 42.5951C15.5971 42.5951 15.0551 42.9654 15.0551 43.5209C15.0551 44.3232 16.38 44.4467 23.1849 44.4467C29.9899 44.4467 31.3147 44.3232 31.3147 43.5209C31.3147 42.9654 30.7727 42.5951 29.9899 42.5951C28.7252 42.5334 24.8711 37.9046 15.2358 24.8823C14.5734 24.0182 14.2723 24.1417 12.285 25.8697C11.0203 26.9189 9.87614 27.6595 9.7557 27.5361C9.63525 27.4127 9.57503 21.1792 9.57503 13.6497V0.0101776H4.8176C1.98722 0.0101776 -6.10352e-05 0.257046 -6.10352e-05 0.62735Z" fill="#BBBBBB"/>
<path d="M66.4836 2.17028C65.219 3.58978 64.0748 4.33039 62.9908 4.33039H61.4251V11.4896V18.7105L59.0163 18.2785C57.6914 18.0934 56.6074 18.1551 56.6074 18.4637C56.6074 19.1425 58.1129 19.7597 59.9798 19.7597H61.4251V30.3134V40.8671L63.1715 42.6569C64.8577 44.3232 65.219 44.4467 69.6753 44.4467C74.1317 44.4467 74.5532 44.3232 75.9985 42.7803C77.8051 40.8053 78.588 38.5218 77.7449 37.9663C77.3836 37.7812 76.7211 38.5835 76.2394 39.7561C74.8543 43.0889 71.1206 44.4467 69.856 42.0397C69.4947 41.2991 69.2538 36.1148 69.2538 29.3876V17.9082H71.5422C72.8068 17.9082 74.0112 18.0316 74.1919 18.2168C74.3725 18.4019 73.7703 19.3894 72.8068 20.3769C70.6389 22.537 70.5786 24.8823 72.5659 26.8572C74.9145 29.3259 78.7687 28.5853 80.0333 25.4377C81.7195 21.3027 77.2029 16.7356 71.5422 16.6739H69.2538V8.34202C69.2538 3.77493 69.0731 0.0101776 68.8322 0.0101776C68.5311 0.0101776 67.5074 0.997654 66.4836 2.17028Z" fill="#BBBBBB"/>
<path d="M139.411 1.55282C138.447 2.47859 137.905 3.77465 137.905 4.94728C137.905 6.92223 139.712 9.26749 141.278 9.26749C141.94 9.26749 142.121 9.6378 141.82 10.5018C141.278 12.2916 142.844 12.1065 144.71 10.1315C145.553 9.26749 146.577 7.60112 146.939 6.49021C148.564 1.42939 143.024 -2.21193 139.411 1.55282Z" fill="#BBBBBB"/>
<path d="M36.6141 17.9078C34.2655 19.2039 32.5191 21.8577 32.5191 24.0796C32.5191 26.0545 35.1688 28.3998 37.3368 28.3998C39.9865 28.3998 42.3953 25.6842 41.9136 23.1538C41.7329 22.1663 40.8898 20.6851 40.1069 20.0062C38.2401 18.2781 38.6616 17.9078 42.1544 17.9078C46.5506 17.9078 47.1528 18.7101 47.4539 24.9436L47.755 30.2513H43.5997C35.4699 30.2513 31.9169 32.5348 31.9169 37.6574C31.9169 39.9409 32.218 40.805 33.4827 42.0393C34.9882 43.4588 35.3495 43.5205 45.8279 43.7057C53.1748 43.8291 56.6074 43.7057 56.6074 43.2736C56.6074 42.9033 56.3665 42.5948 56.0654 42.5948C55.7643 42.5948 55.403 38.0894 55.2826 32.5348C55.1621 24.203 54.9212 22.1663 54.0179 20.8085C52.0909 17.7844 50.2842 17.0438 44.3224 16.8586C39.7456 16.6735 38.481 16.8586 36.6141 17.9078ZM47.5743 37.0402V42.5948H44.6235C41.1307 42.5948 39.7456 41.237 39.7456 37.8425C39.7456 33.4606 41.4318 31.6091 45.6472 31.5474L47.5743 31.4856V37.0402Z" fill="#BBBBBB"/>
<path d="M91.957 17.5379C88.404 18.8957 85.7542 21.3027 84.0681 24.8205C81.599 29.8814 82.2012 35.4976 85.6338 39.8179C88.4642 43.3357 91.2946 44.4467 97.0757 44.4467C101.472 44.4467 102.375 44.2615 104.362 42.9037C108.397 40.0647 109.541 35.6828 106.892 33.0289C105.085 31.1774 103.038 31.054 100.93 32.7821C98.3404 34.8805 98.8221 38.8921 101.893 40.4967C103.278 41.2374 103.519 41.6077 102.977 42.2865C101.833 43.6443 97.9791 44.0146 95.51 42.9654C92.8001 41.7928 91.7161 39.3858 91.1741 33.3993L90.7526 29.0173H99.9061H109.06L108.638 26.6721C107.675 21.0558 103.58 17.3527 97.7984 16.9207C95.6304 16.7356 93.4023 16.9824 91.957 17.5379ZM98.7619 19.1425C99.7255 20.13 99.9663 21.1792 99.9663 24.0799V27.783H95.3896H90.8128L91.1741 25.9315C91.3548 24.8823 91.7161 23.2776 91.8968 22.2284C92.2581 20.1917 94.6669 17.9082 96.4133 17.9082C97.0757 17.9082 98.0995 18.4637 98.7619 19.1425Z" fill="#BBBBBB"/>
<path d="M117.611 17.1055C113.215 17.2906 112.011 17.5375 112.011 18.2164C112.011 18.7101 112.432 19.1422 112.914 19.1422C113.697 19.1422 113.817 20.8703 113.817 30.8685C113.817 40.8667 113.697 42.5948 112.914 42.5948C112.432 42.5948 112.011 42.8416 112.011 43.2119C112.011 43.5822 114.419 43.8291 118.033 43.8291C121.646 43.8291 124.055 43.5822 124.055 43.2119C124.055 42.8416 123.573 42.5948 122.971 42.5948C121.887 42.5948 121.826 41.7307 121.405 30.8067C121.164 24.3264 121.164 18.8336 121.345 18.6484C121.887 18.0313 128.872 17.7227 128.872 18.2781C128.872 18.5867 128.15 19.5125 127.367 20.3148C125.38 22.1663 125.319 25.2522 127.246 27.042C130.077 29.7575 134.894 27.7209 134.894 23.8327C134.894 19.7593 130.739 16.55 125.741 16.7969C124.296 16.8586 120.622 17.0438 117.611 17.1055Z" fill="#BBBBBB"/>
<path d="M160.308 17.5994C150.973 20.5619 147.541 31.8562 153.623 39.756C157.297 44.5082 166.691 45.9894 172.894 42.7801C177.47 40.3731 179.638 37.0404 179.94 31.8562C180.12 28.5851 179.94 27.3508 178.795 25.0055C175.543 18.2783 167.775 15.1925 160.308 17.5994ZM167.956 18.8338C170.605 20.1916 171.328 22.8454 171.328 31.1773C171.328 36.9787 171.087 39.0154 170.304 40.5583C167.956 44.8785 161.693 44.3848 160.127 39.6943C158.862 36.0529 159.043 24.3884 160.368 21.5494C161.994 18.0932 164.764 17.1057 167.956 18.8338Z" fill="#BBBBBB"/>
<path d="M136.701 18.2168C136.701 18.7105 137.123 19.1425 137.604 19.1425C138.387 19.1425 138.508 20.8706 138.508 30.8688C138.508 40.867 138.387 42.5951 137.604 42.5951C137.123 42.5951 136.701 43.0272 136.701 43.5209C136.701 44.2615 137.725 44.4467 142.422 44.4467C147.119 44.4467 148.143 44.2615 148.143 43.5209C148.143 43.0272 147.721 42.5951 147.24 42.5951C146.457 42.5951 146.336 40.8053 146.336 29.9431V17.291H141.519C137.665 17.291 136.701 17.4762 136.701 18.2168Z" fill="#BBBBBB"/>
<path d="M18.7888 19.3276C18.0662 20.1299 17.464 21.5494 17.464 22.4752C17.464 24.1416 19.8126 27.1657 21.1374 27.1657C21.4988 27.1657 21.6794 27.5977 21.4385 28.0915C20.8363 29.7578 23.3054 29.1407 24.8711 27.1657C28.3639 22.9689 27.1595 18.4018 22.5225 18.0315C20.6557 17.9081 19.8728 18.155 18.7888 19.3276Z" fill="#BBBBBB"/>
</svg>
