<svg width="180" height="51" viewBox="0 0 180 51" fill="none" xmlns="http://www.w3.org/2000/svg">
<path d="M1.8568 0.161729C0.917475 0.587092 0 2.04228 0 3.13927C0 3.92283 0.699029 5.15415 1.39806 5.57951C2.29369 6.1392 3.80097 6.1392 4.6966 5.55712C5.43932 5.08699 6.1165 3.92283 6.1165 3.11688C6.1165 2.37809 5.57039 1.25872 4.95874 0.654254C4.32524 0.0721788 2.6432 -0.196472 1.8568 0.161729Z" fill="black"/>
<path d="M5.02418 7.59428C4.08486 8.10919 2.27175 8.15396 1.15767 7.68383C0.742625 7.50473 0.349421 7.34801 0.305732 7.34801C0.262043 7.34801 0.218353 14.3105 0.218353 22.7954V38.2652L3.12369 38.198L6.00719 38.1309L6.11641 30.4072C6.22563 21.9223 6.24748 21.8999 7.64554 20.2432C8.69408 19.0343 9.83 18.5194 11.4465 18.497C13.4781 18.497 14.614 19.2358 15.4441 21.1163C15.7936 21.8999 15.8591 22.9521 15.9465 30.0714L16.0557 38.1309L18.9611 38.198L21.8446 38.2652V29.8699C21.8446 20.9596 21.7572 19.9746 20.796 17.8702C19.2887 14.6016 15.6188 12.721 11.9052 13.3479C9.56787 13.7508 7.49262 15.0045 6.50961 16.6388C6.11641 17.3105 6.11641 17.2433 6.11641 12.2061C6.11641 9.40767 6.05088 7.14652 5.9635 7.14652C5.85427 7.16891 5.43923 7.3704 5.02418 7.59428Z" fill="black"/>
<path d="M33.204 13.4155C31.4128 13.729 31.3909 13.7513 32.0244 14.4006C32.7016 15.0946 33.4006 16.6617 33.4225 17.4453C33.4225 18.0274 33.4443 18.0274 35.1264 18.0274C38.4904 18.0274 40.6312 19.7736 40.6312 22.5049C40.6312 22.975 40.5438 23.0198 39.2768 23.0198C35.1045 23.0198 30.7137 23.8481 28.3764 25.057C25.5584 26.5122 24.4006 28.3256 24.4006 31.3032C24.4006 34.1464 25.6895 36.2508 28.2016 37.5493C29.9492 38.4448 31.6094 38.7582 33.8594 38.6463C36.3715 38.4896 37.9662 37.8403 39.4734 36.3628L40.6312 35.1986V36.721V38.2433H43.3836H46.1142L46.0487 29.2211C45.9832 21.2959 45.9176 20.1094 45.5899 19.2139C44.5851 16.5946 42.5754 14.6468 39.9977 13.8185C38.3812 13.3036 34.9298 13.1021 33.204 13.4155ZM40.5657 28.5047C40.3909 30.3853 39.823 31.6614 38.7307 32.6688C37.573 33.7434 36.5244 34.0792 34.4055 34.0792C31.6531 34.0792 30.3642 33.1166 30.3642 31.0121C30.3642 30.0047 30.4516 29.8032 31.2162 29.042C32.5705 27.7212 34.8424 27.1615 39.0802 27.0719L40.6967 27.0495L40.5657 28.5047Z" fill="black"/>
<path d="M62.257 13.3024C59.9414 13.7725 58.1065 14.7128 56.7521 16.1232L55.7036 17.2202V15.5411V13.8397H52.8638H50.024V28.5035V43.145L50.9633 42.7196C51.4657 42.4733 52.3613 42.2718 52.973 42.2718C53.5846 42.2718 54.4803 42.4733 55.0045 42.7196L55.922 43.145V39.0928V35.0407L57.1235 36.2048C58.6308 37.66 60.1817 38.3988 62.4317 38.7346C63.8953 38.9585 64.4633 38.9361 65.9706 38.6227C68.5045 38.1078 69.9463 37.3242 71.7594 35.466C73.5507 33.6079 74.3371 32.2198 74.9269 29.8244C75.4511 27.7199 75.4948 24.3618 75.0361 22.4589C73.9875 18.25 71.3225 15.1605 67.6089 13.8397C66.3419 13.3919 63.3274 13.1009 62.257 13.3024ZM66.0579 18.5858C66.6259 18.7649 67.3905 19.3022 68.1769 20.1082C69.8152 21.7425 70.405 23.2872 70.405 25.9289C70.405 30.3393 67.9584 33.4288 64.2448 33.7198C62.0167 33.8765 60.7278 33.3616 59.0458 31.6378C57.9317 30.4736 57.6477 30.0259 57.2545 28.7498C56.6866 26.8692 56.6647 25.2573 57.189 23.5111C57.7351 21.7201 58.7837 20.2425 60.1599 19.3022C61.9293 18.1157 63.7424 17.8918 66.0579 18.5858Z" fill="black"/>
<path d="M90.0872 13.5044C88.2304 13.9073 86.33 14.9596 85.2377 16.1685C84.7353 16.7282 84.2547 17.1983 84.211 17.1983C84.1455 17.1983 84.1018 16.4371 84.1018 15.5192V13.8178L81.3275 13.885L78.5314 13.9521L78.4659 28.5488C78.444 36.5859 78.444 43.1678 78.4877 43.1678C78.5096 43.1678 78.9246 42.9664 79.4052 42.7201C80.5193 42.138 82.4198 42.1156 83.512 42.6977L84.3203 43.1231V39.1157C84.3203 36.9217 84.3639 35.1083 84.4295 35.1083C84.495 35.1083 84.8882 35.5113 85.3251 36.0038C86.3955 37.2128 88.8421 38.4217 90.83 38.7351C94.347 39.2724 97.9076 38.0411 100.42 35.4218C105.247 30.3846 105.073 20.9594 100.07 16.258C97.3615 13.7059 93.6916 12.6984 90.0872 13.5044ZM95.177 18.8998C96.5314 19.5714 97.5144 20.646 98.279 22.3474C98.7814 23.422 98.847 23.8698 98.847 25.9294C98.847 28.0339 98.7814 28.4145 98.2135 29.6906C96.9683 32.4442 94.6091 33.9218 91.7474 33.7203C84.9101 33.2054 82.8785 22.9519 88.8639 19.1684C90.7207 17.9819 93.1018 17.8923 95.177 18.8998Z" fill="black"/>
<path d="M116.716 13.3923C111.801 14.3102 108.044 17.9593 106.908 22.9741C106.449 24.9666 106.602 28.6158 107.214 30.6307C109.202 36.9663 116.585 40.3916 123.663 38.22L124.515 37.9514L123.641 37.1678C122.658 36.3171 121.893 34.9739 121.893 34.1007C121.893 33.5858 121.828 33.5411 121.303 33.6978C120.954 33.7873 119.993 33.8545 119.119 33.8545C117.808 33.8321 117.306 33.7202 116.126 33.1157C115.296 32.7127 114.379 32.0187 113.942 31.4814C113.243 30.6531 112.5 28.974 112.5 28.2352C112.5 27.9889 114.182 27.9442 121.5 27.9442H130.478L130.347 25.5263C130.172 22.4368 129.867 21.004 129.036 19.2578C127.791 16.6385 125.76 14.8027 123.007 13.84C121.456 13.3027 118.376 13.1012 116.716 13.3923ZM121.587 18.2951C123.226 19.0563 124.515 21.116 124.515 22.9965V23.6905H118.485H112.456L112.609 22.8622C112.893 21.3175 113.745 20.0638 115.384 18.7877C116.629 17.825 119.993 17.5563 121.587 18.2951Z" fill="black"/>
<path d="M145.354 13.4817C143.366 13.9742 141.204 15.6309 140.374 17.31C140.046 17.9592 140.024 17.9144 140.024 15.8995V13.8399H137.184H134.344V26.0411V38.2423H137.272H140.221L140.286 30.6753C140.374 22.2352 140.439 21.8994 141.925 20.1084C142.929 18.9219 144.153 18.3398 145.66 18.3174C147.036 18.3174 147.997 18.698 148.806 19.5711C149.985 20.8696 150.138 21.6308 150.247 26.4217L150.335 30.832L151.034 30.4514C152.082 29.8918 154.332 29.9365 155.381 30.5634L156.189 31.0559V26.6456C156.189 21.5636 155.971 19.8621 155.119 17.9816C153.459 14.3324 149.439 12.4743 145.354 13.4817Z" fill="black"/>
<path d="M160.121 16.3028V18.7654H165.866H171.59L171.524 17.3774C171.459 16.2356 171.546 15.7655 171.983 14.8923L172.507 13.8401H166.325H160.121V16.3028Z" fill="black"/>
<path d="M174.998 14.445C174.015 14.9376 173.447 15.945 173.447 17.1987C173.447 18.4524 174.036 19.4598 175.041 19.9524C176.068 20.4673 176.833 20.4225 177.837 19.8404C180 18.6091 179.782 15.3853 177.444 14.3779C176.527 13.9749 175.915 13.9973 174.998 14.445Z" fill="black"/>
<path d="M27.1092 15.1163C25.9733 15.7207 25.4709 16.5714 25.4709 17.8475C25.4709 19.8176 27.1092 21.2504 28.9442 20.9146C30.9539 20.5117 32.068 18.1162 31.0194 16.37C30.1675 14.9148 28.4636 14.3775 27.1092 15.1163Z" fill="black"/>
<path d="M167.002 24.6315L162.24 29.8477L163.245 30.0045C164.468 30.1836 165.561 30.8328 166.434 31.885L167.046 32.6686L171.764 27.5866L176.483 22.4823L175.369 22.1912C174.102 21.8554 173.294 21.3181 172.398 20.1987L171.743 19.3928L167.002 24.6315Z" fill="black"/>
<path d="M125.406 30.9912C123.025 32.0882 123.2 35.894 125.669 36.7224C128.268 37.6179 130.671 34.6851 129.251 32.312C128.443 30.9464 126.761 30.3643 125.406 30.9912Z" fill="black"/>
<path d="M151.668 32.4222C149.002 34.0789 150.029 38.1086 153.153 38.1086C154.267 38.1086 155.097 37.6609 155.665 36.7878C157.347 34.1684 154.267 30.7879 151.668 32.4222Z" fill="black"/>
<path d="M161.061 32.422C160.23 32.9369 159.794 33.6086 159.575 34.616C159.378 35.5787 160.099 37.101 161.017 37.6607C162.939 38.8249 165.582 37.3697 165.582 35.1533C165.582 32.7131 163.048 31.1683 161.061 32.422Z" fill="black"/>
<path d="M167.439 34.8842C167.439 36.2274 167.352 36.7423 166.959 37.3916L166.478 38.2423H173.228H180V35.7125V33.2051H173.709H167.439V34.8842Z" fill="black"/>
<path d="M51.4004 44.735C48.8882 46.3021 50.0241 50.3318 52.9732 50.3318C54.6334 50.3318 55.9222 49.011 55.9222 47.3095C55.9222 44.9365 53.3882 43.4813 51.4004 44.735Z" fill="black"/>
<path d="M79.8467 44.5519C77.3346 46.119 78.4705 50.1487 81.4195 50.1487C83.0797 50.1487 84.3686 48.8279 84.3686 47.1264C84.3686 44.7533 81.8346 43.2982 79.8467 44.5519Z" fill="black"/>
</svg>
