<svg width="180" height="46" viewBox="0 0 180 46" fill="none" xmlns="http://www.w3.org/2000/svg">
<path d="M94.5677 4.76147V9.52289H95.317C96.6359 9.52289 99.2436 8.29414 100.413 7.12682C101.821 5.71375 102.571 4.02422 102.84 1.75102L103.05 5.14984e-05H98.794H94.5677V4.76147Z" fill="#BBBBBB"/>
<path d="M135.932 4.79244V9.6153L137.28 9.43098C141.057 8.87804 143.905 5.77544 144.234 1.81271L144.414 0.000301361H140.158H135.932V4.79244Z" fill="#BBBBBB"/>
<path d="M161.11 10.1374C157.213 10.7518 153.436 13.0557 151.158 16.1276C148.611 19.5373 147.352 25.0667 147.891 30.1968C148.731 37.9686 152.537 43.0065 158.982 44.9725C161.08 45.6176 165.786 45.6176 168.154 45.0033C173.909 43.498 177.895 39.351 179.394 33.3301C180.143 30.3811 180.203 25.3125 179.544 22.4556C178.195 16.6498 174.268 12.1341 169.203 10.6289C167.165 10.0145 163.298 9.76876 161.11 10.1374ZM167.704 17.7557C170.462 19.5066 171.751 23.1622 171.541 28.7223C171.421 31.6098 171.271 32.3778 170.552 34.0366C169.053 37.4771 166.775 38.9209 163.268 38.6137C160.84 38.4294 159.251 37.385 157.903 35.0504C156.704 32.9922 156.314 31.1491 156.314 27.3706C156.314 23.1314 157.063 20.7047 158.982 18.7387C160.001 17.6942 160.81 17.172 161.739 16.9262C163.747 16.4655 166.145 16.7727 167.704 17.7557Z" fill="#BBBBBB"/>
<path d="M44.9009 10.5981C36.9279 12.8099 32.4318 21.6876 34.1403 31.9477C35.579 40.6719 41.0343 45.464 49.5169 45.464C54.2528 45.464 58.2993 43.7745 60.937 40.7026C62.1059 39.3202 63.9943 35.849 63.9943 35.0503C63.9943 34.8353 62.6754 34.7124 59.8279 34.7124H55.6615L55.3019 35.634C54.4626 37.7228 52.1546 38.8594 49.1572 38.6444C46.3696 38.4601 44.6611 37.2928 43.4022 34.7124C42.8627 33.6065 42.3232 31.9784 42.2332 31.0876L42.0234 29.4902H53.1737H64.294L64.4739 28.6915C64.5938 28.2614 64.5938 26.8484 64.4739 25.5582C63.7245 17.1412 60.3675 12.3184 54.013 10.5674C52.0347 10.0145 46.9391 10.0452 44.9009 10.5981ZM51.735 16.6497C54.1329 17.4791 55.6615 19.6295 56.0812 22.8242L56.291 24.268H49.3371H42.4131V23.5C42.4131 22.302 43.612 19.3837 44.5412 18.2778C46.0399 16.5576 49.3371 15.7896 51.735 16.6497Z" fill="#BBBBBB"/>
<path d="M1.10904 11.3656C1.73849 11.7035 2.42789 12.3793 2.66768 12.8401C2.99739 13.5159 6.38444 23.5303 12.4991 41.8387L13.4883 44.8491H17.8345H22.1807L22.9001 42.7602C23.2897 41.6236 24.6985 37.5073 26.0773 33.6367C31.8323 17.3251 34.0204 11.0277 34.0204 10.9048C34.0204 10.8127 32.162 10.7512 29.884 10.7512H25.7176L24.6685 14.1917C24.0691 16.0963 22.7202 20.4891 21.6412 23.9603C19.8128 29.7969 19.3632 31.3636 18.404 35.0191L18.0443 36.4014L16.7854 31.4864C15.6764 27.1858 14.5374 23.1309 11.7797 13.3623L11.0604 10.9048L5.54518 10.8434L0 10.7819L1.10904 11.3656Z" fill="#BBBBBB"/>
<path d="M66.542 10.9663C66.8717 11.0584 67.4412 11.3963 67.8309 11.7649L68.4903 12.3793V28.6296V44.8491H72.6867H76.883V35.7871C76.883 30.2884 77.0029 26.1106 77.2127 25.1276C77.8722 21.9636 79.5507 19.5675 81.9786 18.2773C82.4881 18.0009 83.9569 17.6322 85.2757 17.4479L87.6736 17.11V13.9153V10.7512H86.5946C84.7662 10.7512 81.499 11.6728 80.0603 12.5943C79.3109 13.0859 78.2918 14.0689 77.7822 14.7754L76.883 16.0656V13.4238V10.7512L71.4278 10.7819C68.4004 10.8127 66.2123 10.8741 66.542 10.9663Z" fill="#BBBBBB"/>
<path d="M89.1724 13.9774V17.2029H91.87H94.5677V27.0944C94.5677 37.9688 94.7775 40.1192 96.0664 42.1773C97.3552 44.2662 99.0338 44.9727 103.11 45.0956C105.029 45.157 106.947 45.0649 107.696 44.8806L108.955 44.512V41.6244V38.7061H106.827C104.879 38.7061 104.639 38.6447 103.83 37.8152L102.96 36.9244V27.0637V17.2029H106.257H109.555V13.9774V10.752H99.3635H89.1724V13.9774Z" fill="#BBBBBB"/>
<path d="M112.492 11.212C113.032 11.4578 113.601 12.0107 113.751 12.4408C113.931 12.9323 114.051 19.3525 114.051 29.0596V44.8491H118.067H122.084L122.204 35.2648C122.354 24.6361 122.503 23.7453 124.332 21.0113C125.651 19.076 127.659 17.9394 130.626 17.4786L132.934 17.1407V13.8845V10.6591L130.956 10.8741C127.329 11.2427 124.692 12.6251 123.103 15.0211L122.144 16.4035V13.5774V10.7512H116.838C111.983 10.7819 111.593 10.8127 112.492 11.212Z" fill="#BBBBBB"/>
<path d="M135.932 27.8002V44.8491H140.128H144.324V27.8002V10.7512H140.128H135.932V27.8002Z" fill="#BBBBBB"/>
</svg>
