<svg width="23" height="22" viewBox="0 0 23 22" fill="none" xmlns="http://www.w3.org/2000/svg">
<path d="M15.9397 13.8189H14.9522L14.6022 13.4814C15.8695 12.0114 16.5661 10.1347 16.5647 8.19385C16.5647 6.58688 16.0882 5.01599 15.1954 3.67984C14.3026 2.34369 13.0337 1.30229 11.549 0.68733C10.0644 0.0723681 8.43069 -0.088534 6.85459 0.224971C5.2785 0.538476 3.83076 1.31231 2.69446 2.44861C1.55816 3.58491 0.784325 5.03265 0.470821 6.60874C0.157316 8.18484 0.318218 9.8185 0.93318 11.3032C1.54814 12.7878 2.58954 14.0568 3.92569 14.9495C5.26184 15.8423 6.83273 16.3189 8.4397 16.3189C10.4522 16.3189 12.3022 15.5814 13.7272 14.3564L14.0647 14.7064V15.6939L20.3147 21.9314L22.1772 20.0689L15.9397 13.8189ZM8.4397 13.8189C5.3272 13.8189 2.8147 11.3064 2.8147 8.19385C2.8147 5.08135 5.3272 2.56885 8.4397 2.56885C11.5522 2.56885 14.0647 5.08135 14.0647 8.19385C14.0647 11.3064 11.5522 13.8189 8.4397 13.8189Z" fill="black"/>
</svg>
